<svg width="123" height="53" viewBox="0 0 123 53" fill="none" xmlns="http://www.w3.org/2000/svg">
<g filter="url(#filter0_d_953_52)">
<path fill-rule="evenodd" clip-rule="evenodd" d="M34.2152 14.0776C34.2257 14.0724 34.2361 14.0679 34.2466 14.0642C35.1216 13.5434 35.8429 13.1157 36.4105 12.7812C36.9888 12.4378 37.4521 12.1625 37.8002 11.9553C38.1484 11.7481 38.4081 11.5942 38.5792 11.4936C38.7563 11.3929 38.889 11.3189 38.9776 11.2716C39.0602 11.2242 39.1339 11.1916 39.1989 11.1739C39.2697 11.1561 39.3464 11.1472 39.429 11.1472C39.6001 11.1472 39.7388 11.1976 39.845 11.2982C39.9572 11.3988 40.0132 11.5113 40.0132 11.6356C40.0132 11.76 39.9749 11.9316 39.8982 12.1507C39.8214 12.3638 39.727 12.5976 39.6149 12.8522C39.5028 13.1068 39.3877 13.3672 39.2697 13.6336C39.1516 13.8941 39.0513 14.1368 38.9687 14.3618L38.8802 14.5838C38.8625 14.6371 38.8389 14.6992 38.8094 14.7703C38.7858 14.8413 38.7504 14.9331 38.7031 15.0455C38.6559 15.1521 38.5881 15.3031 38.4995 15.4984C38.7474 15.1787 39.0366 14.8443 39.367 14.495C39.7034 14.1457 40.0663 13.8053 40.4558 13.4738C40.8512 13.1364 41.2702 12.8167 41.7128 12.5148C42.1613 12.2128 42.6216 11.9494 43.0937 11.7244C43.5717 11.4936 44.0586 11.313 44.5543 11.1828C45.05 11.0466 45.5428 10.9785 46.0326 10.9785C46.3335 10.9785 46.5401 11.0436 46.6522 11.1739C46.7702 11.2982 46.8292 11.4699 46.8292 11.6889C46.8292 11.8665 46.7968 12.0826 46.7319 12.3372C46.6669 12.5917 46.5784 12.87 46.4663 13.1719C46.3542 13.4679 46.2273 13.7875 46.0857 14.1309C45.944 14.4683 45.7936 14.8117 45.6342 15.161C45.4808 15.5043 45.3244 15.8507 45.1651 16.1999C45.0116 16.5492 44.8671 16.8837 44.7313 17.2034C45.0677 17.0672 45.4188 16.8896 45.7847 16.6706C46.1506 16.4515 46.5401 16.2059 46.9532 15.9335C47.3722 15.6612 47.8118 15.3682 48.2721 15.0544C48.7142 14.7513 49.1855 14.4428 49.6859 14.129C49.7114 14.1119 49.7388 14.0948 49.7681 14.0776L49.7683 14.0775L51.3349 13.1808C51.8306 12.8848 52.3086 12.5858 52.7689 12.2839L52.7866 12.204L51.6535 12.2306C51.5945 12.2306 51.5385 12.2336 51.4854 12.2395C51.4322 12.2454 51.3821 12.2484 51.3349 12.2484C51.2346 12.2484 51.1519 12.2188 51.087 12.1596C51.028 12.0944 50.9926 12.0234 50.9808 11.9464C50.9808 11.8813 51.031 11.8192 51.1313 11.76C51.2316 11.7008 51.3732 11.6475 51.5562 11.6001C51.7391 11.5468 51.9575 11.4995 52.2112 11.458C52.465 11.4107 52.7453 11.3692 53.0522 11.3337C53.4062 10.2208 53.7898 9.25582 54.2029 8.43886C54.616 7.62191 55.0793 6.94703 55.5927 6.41423C56.112 5.88144 56.6903 5.4848 57.3276 5.22432C57.965 4.96384 58.6849 4.8336 59.4875 4.8336C59.8593 4.8336 60.1278 4.8928 60.2931 5.0112C60.4642 5.12368 60.5498 5.28352 60.5498 5.49072C60.5498 5.77488 60.4229 6.11824 60.1691 6.52079C59.9213 6.92335 59.5701 7.37031 59.1157 7.86167C58.6672 8.3471 58.1273 8.8651 57.4958 9.41566C56.8703 9.96029 56.1769 10.5197 55.4156 11.094C55.7933 11.0584 56.1769 11.0259 56.5664 10.9963L57.7171 10.8986C58.0948 10.869 58.4636 10.8364 58.8236 10.8009C59.1895 10.7654 59.5377 10.7269 59.8682 10.6855C59.9331 10.6677 59.9803 10.644 60.0098 10.6144C60.0393 10.5789 60.0895 10.5612 60.1603 10.5612C60.1839 10.5612 60.2134 10.5671 60.2488 10.5789C60.3904 10.65 60.4612 10.7358 60.4612 10.8364C60.4612 10.9904 60.4022 11.1324 60.2842 11.2627C60.1721 11.3929 60.0216 11.5113 59.8327 11.6179C59.6498 11.7185 59.4403 11.8073 59.2043 11.8843C58.9741 11.9612 58.741 12.0264 58.505 12.0796C58.2748 12.1329 58.0535 12.1744 57.8411 12.204C57.605 12.2336 57.428 12.2454 57.3099 12.2395C56.8496 12.2276 56.3952 12.2188 55.9467 12.2128L54.6455 12.1951C54.4685 12.8581 54.3298 13.4264 54.2295 13.9C54.1291 14.3677 54.0524 14.7762 53.9993 15.1255C53.9521 15.4688 53.9226 15.7678 53.9108 16.0223C53.899 16.2769 53.8931 16.5226 53.8931 16.7594C53.8931 16.8896 53.9108 16.9932 53.9462 17.0702C53.9816 17.1471 54.0406 17.1856 54.1232 17.1856C54.4124 17.1856 54.7311 17.0879 55.0793 16.8926C55.4333 16.6972 55.8287 16.4486 56.2654 16.1467L57.7348 15.1432C58.5374 14.5927 59.1393 14.2375 59.5406 14.0776L62.8159 12.1418C63.223 11.905 63.6568 11.7008 64.1171 11.5291C64.5774 11.3574 65.0436 11.2183 65.5157 11.1117C65.9937 10.9992 66.4658 10.9193 66.932 10.872C67.3982 10.8187 67.8379 10.792 68.251 10.792C68.487 10.792 68.7083 10.8098 68.9148 10.8453C69.1214 10.8749 69.2984 10.9223 69.446 10.9874C69.5994 11.0466 69.7174 11.1206 69.8 11.2094C69.8886 11.2982 69.9328 11.3988 69.9328 11.5113C69.9328 11.5942 69.9033 11.6534 69.8443 11.6889C69.7853 11.7244 69.7145 11.7511 69.6319 11.7688C69.5551 11.7807 69.4725 11.7896 69.384 11.7955C69.3014 11.8014 69.2365 11.8162 69.1893 11.8399C69.1539 11.9524 69.0978 12.127 69.0211 12.3638C68.9444 12.5947 68.8676 12.8344 68.7909 13.0831C68.7142 13.3258 68.6434 13.5448 68.5785 13.7402C68.5195 13.9296 68.487 14.0391 68.4811 14.0687C68.4044 14.3174 68.2982 14.6341 68.1624 15.0189C68.0326 15.3978 67.888 15.9069 67.7287 16.5462C67.7346 16.5462 67.7995 16.5137 67.9234 16.4486C68.0533 16.3775 68.2185 16.2858 68.4191 16.1733C68.6257 16.0608 68.8588 15.9306 69.1184 15.7826C69.3781 15.6346 69.6466 15.4836 69.924 15.3297L72.0396 14.0776L74.7925 12.4526C75.0758 11.4699 75.3679 10.5671 75.6689 9.74421C75.9699 8.92134 76.2974 8.17838 76.6515 7.51535C77.0055 6.85231 77.3921 6.2692 77.8111 5.766C78.2301 5.2628 78.6992 4.84544 79.2185 4.51393C79.7378 4.17649 80.3132 3.92489 80.9447 3.75913C81.582 3.58745 82.2902 3.50161 83.0691 3.50161C83.4586 3.50161 83.7861 3.53713 84.0517 3.60817C84.3172 3.67329 84.5326 3.77097 84.6979 3.90121C84.869 4.02553 84.99 4.17649 85.0608 4.35409C85.1375 4.53169 85.1759 4.72705 85.1759 4.94016C85.1759 5.20656 85.0874 5.49368 84.9103 5.80152C84.7333 6.10344 84.4943 6.41719 84.1933 6.74279C83.8923 7.06839 83.5442 7.39991 83.1488 7.73735C82.7534 8.06886 82.3374 8.39742 81.9007 8.72302C81.464 9.04862 81.0184 9.36238 80.564 9.66429C80.1155 9.96621 79.6847 10.2474 79.2716 10.5079C78.8644 10.7684 78.4868 11.0022 78.1386 11.2094C77.7963 11.4166 77.516 11.5853 77.2976 11.7156C77.1914 12.0885 77.0852 12.4792 76.979 12.8877C76.8728 13.2962 76.7754 13.7076 76.6869 14.122C76.6042 14.5364 76.5364 14.9479 76.4833 15.3563C76.4302 15.7589 76.4036 16.1378 76.4036 16.493C76.4036 16.635 76.4154 16.7564 76.439 16.857C76.4685 16.9577 76.5157 17.008 76.5806 17.008C76.6928 17.008 76.858 16.9666 77.0763 16.8837C77.3006 16.7949 77.5573 16.6765 77.8465 16.5285C78.1356 16.3805 78.4514 16.2118 78.7936 16.0223C79.1418 15.827 79.5018 15.6198 79.8736 15.4007C80.2453 15.1817 80.6201 14.9597 80.9978 14.7347C81.3755 14.5098 81.7443 14.2907 82.1043 14.0776C82.118 14.0697 82.1322 14.0631 82.1466 14.0579C82.9057 13.6102 83.5702 13.2172 84.1402 12.8788C84.7244 12.5296 85.2319 12.2276 85.6627 11.9731C86.0935 11.7185 86.4594 11.5054 86.7604 11.3337C87.0613 11.162 87.3181 11.0259 87.5305 10.9252C87.743 10.8246 87.92 10.7536 88.0616 10.7121C88.2033 10.6648 88.3331 10.6411 88.4511 10.6411C88.6281 10.6411 88.7727 10.6796 88.8849 10.7565C88.997 10.8276 89.0855 10.9223 89.1504 11.0407C89.2212 11.1532 89.2684 11.2775 89.292 11.4136C89.3157 11.5439 89.3275 11.6712 89.3275 11.7955C89.3275 12.05 89.2625 12.346 89.1327 12.6835C89.0088 13.015 88.8524 13.3613 88.6636 13.7224C88.4747 14.0835 88.2711 14.4476 88.0528 14.8147C87.8344 15.1817 87.6308 15.528 87.442 15.8536C87.2531 16.1792 87.0938 16.4693 86.964 16.7238C86.84 16.9784 86.7781 17.1738 86.7781 17.3099C86.7781 17.4461 86.846 17.5142 86.9817 17.5142C87.1941 17.5142 87.4685 17.4431 87.8049 17.301C88.1472 17.153 88.5249 16.9547 88.938 16.7061C89.3511 16.4515 89.7878 16.1555 90.2481 15.8181C90.7084 15.4747 91.1657 15.1077 91.6201 14.717C92.0745 14.3263 92.5112 13.9207 92.9302 13.5004C93.3551 13.0801 93.7387 12.6598 94.0809 12.2395C94.1046 12.204 94.1193 12.1418 94.1252 12.053C94.137 11.9583 94.1606 11.8636 94.196 11.7688C94.2373 11.6682 94.2993 11.5824 94.3819 11.5113C94.4704 11.4344 94.6032 11.3959 94.7803 11.3959C94.9278 11.3959 95.0458 11.4136 95.1343 11.4492C95.2228 11.4847 95.2878 11.535 95.3291 11.6001C95.3763 11.6593 95.4058 11.7333 95.4176 11.8221C95.4294 11.905 95.4353 11.9997 95.4353 12.1063C95.4353 12.0944 95.4324 12.0885 95.4264 12.0885C95.4146 12.0885 95.3704 12.198 95.2937 12.4171C95.2169 12.6302 95.1137 12.9292 94.9838 13.314C94.8599 13.6928 94.7065 14.1427 94.5235 14.6637C94.3465 15.1847 94.1459 15.75 93.9216 16.3598C94.4586 15.9691 95.0104 15.5872 95.5769 15.2143C96.1494 14.8354 96.7572 14.4565 97.4004 14.0776C97.411 14.0723 97.4216 14.0678 97.4322 14.0641L100.685 12.1418C101.092 11.905 101.525 11.7008 101.986 11.5291C102.446 11.3574 102.912 11.2183 103.384 11.1117C103.862 10.9992 104.334 10.9193 104.801 10.872C105.267 10.8187 105.707 10.792 106.12 10.792C106.356 10.792 106.577 10.8098 106.784 10.8453C106.99 10.8749 107.167 10.9223 107.315 10.9874C107.468 11.0466 107.586 11.1206 107.669 11.2094C107.757 11.2982 107.801 11.3988 107.801 11.5113C107.801 11.5942 107.772 11.6534 107.713 11.6889C107.654 11.7244 107.583 11.7511 107.501 11.7688C107.424 11.7807 107.341 11.7896 107.253 11.7955C107.17 11.8014 107.105 11.8162 107.058 11.8399C107.022 11.9524 106.966 12.127 106.89 12.3638C106.813 12.5947 106.736 12.8344 106.66 13.0831C106.583 13.3258 106.512 13.5448 106.447 13.7402C106.388 13.9296 106.356 14.0391 106.35 14.0687C106.273 14.3174 106.167 14.6341 106.031 15.0189C105.901 15.3978 105.757 15.9069 105.597 16.5462C105.603 16.5462 105.668 16.5137 105.792 16.4486C105.922 16.3775 106.087 16.2858 106.288 16.1733C106.494 16.0608 106.727 15.9306 106.987 15.7826C107.247 15.6346 107.515 15.4836 107.793 15.3297L109.908 14.0776C109.991 14.0303 110.062 14.0066 110.121 14.0066C110.186 14.0066 110.236 14.0303 110.271 14.0776C110.307 14.1191 110.324 14.1723 110.324 14.2375C110.324 14.3203 110.292 14.418 110.227 14.5305C110.162 14.6371 110.056 14.7318 109.908 14.8147L105.199 17.5852C105.081 17.6562 104.972 17.7066 104.871 17.7362C104.771 17.7658 104.68 17.7806 104.597 17.7806C104.479 17.7806 104.379 17.7539 104.296 17.7006C104.213 17.6474 104.146 17.5734 104.093 17.4786C104.039 17.3839 103.998 17.2774 103.969 17.159C103.945 17.0346 103.933 16.9044 103.933 16.7682C103.933 16.6202 103.948 16.4722 103.977 16.3243C104.007 16.1763 104.045 16.0342 104.093 15.898C103.921 16.2355 103.721 16.5285 103.491 16.7771C103.266 17.0258 103.024 17.2359 102.765 17.4076C102.511 17.5734 102.248 17.6977 101.977 17.7806C101.705 17.8634 101.44 17.9049 101.18 17.9049C100.921 17.9049 100.676 17.8634 100.446 17.7806C100.215 17.6977 100.012 17.5763 99.8347 17.4165C99.6636 17.2507 99.5278 17.0465 99.4275 16.8038C99.3272 16.5611 99.277 16.2799 99.277 15.9602C99.277 15.7707 99.2947 15.5606 99.3302 15.3297C99.3715 15.0988 99.4246 14.865 99.4895 14.6282C99.5544 14.3914 99.6282 14.1605 99.7108 13.9355C99.7934 13.7047 99.879 13.4945 99.9675 13.3051L97.4093 14.8147C97.3936 14.8237 97.3783 14.8309 97.3635 14.8365C97.046 15.0244 96.7367 15.2095 96.4356 15.3919C96.1287 15.5754 95.8189 15.7707 95.5061 15.9779C95.1933 16.1851 94.8717 16.4071 94.5413 16.6439C94.2167 16.8807 93.8744 17.1471 93.5144 17.4431C93.2194 18.2127 92.8977 19.009 92.5496 19.8318C92.2073 20.6547 91.8444 21.4569 91.4608 22.2383C91.0831 23.0256 90.6877 23.7686 90.2746 24.4672C89.8615 25.1716 89.4366 25.7873 88.9999 26.3142C88.5691 26.8411 88.1295 27.2584 87.681 27.5663C87.2384 27.88 86.7958 28.0369 86.3532 28.0369C86.1289 28.0369 85.9372 28.0103 85.7778 27.957C85.6185 27.9037 85.4857 27.8327 85.3795 27.7439C85.2733 27.6551 85.1936 27.5544 85.1405 27.4419C85.0933 27.3354 85.0697 27.2259 85.0697 27.1134C85.0697 26.9417 85.1198 26.6901 85.2201 26.3586C85.3205 26.033 85.4827 25.6482 85.707 25.2042C85.9313 24.7602 86.2204 24.2629 86.5745 23.7124C86.9345 23.1618 87.3682 22.5728 87.8757 21.9453C88.3832 21.3237 88.9704 20.6725 89.6373 19.9917C90.31 19.3109 91.0742 18.6153 91.9299 17.9049C92.2722 17.1057 92.5643 16.4338 92.8063 15.8891C93.0482 15.3445 93.2489 14.8916 93.4082 14.5305C93.5734 14.1694 93.7033 13.8823 93.7977 13.6691C93.8921 13.4501 93.9659 13.2696 94.019 13.1275C93.7711 13.4471 93.4761 13.7935 93.1338 14.1664C92.7915 14.5394 92.4138 14.9123 92.0007 15.2853C91.5936 15.6583 91.1569 16.0164 90.6907 16.3598C90.2303 16.7031 89.7553 17.008 89.2655 17.2744C88.7757 17.5349 88.277 17.745 87.7695 17.9049C87.2679 18.0647 86.7722 18.1446 86.2824 18.1446C85.9991 18.1446 85.8044 18.0677 85.6982 17.9138C85.5919 17.7658 85.5388 17.5645 85.5388 17.3099C85.5388 17.079 85.5772 16.8067 85.6539 16.493C85.7365 16.1733 85.8398 15.8359 85.9637 15.4807C86.0876 15.1195 86.2263 14.7525 86.3798 14.3795C86.5391 14.0007 86.6955 13.6366 86.8489 13.2873L87.2738 12.3194C87.4095 12.0234 87.5187 11.7748 87.6013 11.5735C87.3358 11.7452 86.9994 11.9524 86.5922 12.1951C86.1909 12.4319 85.7483 12.6924 85.2644 12.9765C84.7805 13.2548 84.2671 13.5507 83.7242 13.8645C83.1871 14.1783 82.6501 14.495 82.1131 14.8147C82.0879 14.8291 82.0635 14.8413 82.04 14.8514C81.7564 15.0137 81.4474 15.1938 81.1128 15.3919C80.7588 15.5991 80.3929 15.8122 80.0152 16.0312C79.6434 16.2503 79.2716 16.4663 78.8998 16.6794C78.5281 16.8926 78.174 17.0879 77.8376 17.2655C77.5071 17.4431 77.2062 17.597 76.9347 17.7273C76.6633 17.8516 76.442 17.9374 76.2708 17.9848C76.1764 18.0144 76.0879 18.0322 76.0053 18.0381C75.9286 18.0499 75.8577 18.0558 75.7928 18.0558C75.545 18.0558 75.3414 17.9937 75.182 17.8694C75.0227 17.745 74.8958 17.5793 74.8014 17.3721C74.7129 17.159 74.6509 16.9133 74.6155 16.635C74.5801 16.3509 74.5624 16.0519 74.5624 15.7382C74.5624 15.3119 74.5831 14.8798 74.6244 14.4417C74.6657 13.9977 74.704 13.5892 74.7394 13.2163L72.0922 14.7835C72.0753 14.7941 72.0577 14.8045 72.0396 14.8147L67.3304 17.5852C67.2123 17.6562 67.1031 17.7066 67.0028 17.7362C66.9025 17.7658 66.811 17.7806 66.7284 17.7806C66.6104 17.7806 66.5101 17.7539 66.4275 17.7006C66.3448 17.6474 66.277 17.5734 66.2239 17.4786C66.1707 17.3839 66.1294 17.2774 66.0999 17.159C66.0763 17.0346 66.0645 16.9044 66.0645 16.7682C66.0645 16.6202 66.0793 16.4722 66.1088 16.3243C66.1383 16.1763 66.1767 16.0342 66.2239 15.898C66.0527 16.2355 65.8521 16.5285 65.6219 16.7771C65.3977 17.0258 65.1557 17.2359 64.8961 17.4076C64.6423 17.5734 64.3797 17.6977 64.1082 17.7806C63.8368 17.8634 63.5712 17.9049 63.3116 17.9049C63.0519 17.9049 62.807 17.8634 62.5769 17.7806C62.3467 17.6977 62.1431 17.5763 61.9661 17.4165C61.7949 17.2507 61.6592 17.0465 61.5589 16.8038C61.4586 16.5611 61.4084 16.2799 61.4084 15.9602C61.4084 15.7707 61.4261 15.5606 61.4615 15.3297C61.5028 15.0988 61.5559 14.865 61.6208 14.6282C61.6858 14.3914 61.7595 14.1605 61.8421 13.9355C61.9248 13.7047 62.0103 13.4945 62.0989 13.3051L59.5406 14.8147C58.6377 15.3593 57.9709 15.7855 57.5401 16.0934L56.0264 17.1945C55.5779 17.5142 55.1678 17.7687 54.796 17.9582C54.4183 18.1476 54.0377 18.2423 53.6541 18.2423C53.3236 18.2423 53.0669 18.1535 52.884 17.9759C52.7069 17.7983 52.5742 17.5822 52.4856 17.3277C52.403 17.0672 52.3529 16.789 52.3351 16.493C52.3174 16.197 52.3086 15.9335 52.3086 15.7027C52.3086 15.2527 52.3322 14.8058 52.3794 14.3618C52.4325 13.9178 52.5004 13.4915 52.583 13.0831L51.1932 13.9622L49.7681 14.8147C49.0658 15.2527 48.4314 15.6701 47.8649 16.0667C47.2984 16.4634 46.7791 16.8156 46.307 17.1234C45.8408 17.4313 45.4129 17.674 45.0234 17.8516C44.6399 18.0351 44.2828 18.1269 43.9524 18.1269C43.7517 18.1269 43.5806 18.1002 43.4389 18.047C43.2973 17.9996 43.1793 17.9345 43.0849 17.8516C42.9963 17.7687 42.9285 17.671 42.8813 17.5586C42.84 17.4402 42.8193 17.3188 42.8193 17.1945C42.8193 17.0583 42.8459 16.9251 42.899 16.7949C42.958 16.6587 43.0376 16.5137 43.138 16.3598C43.3209 15.9572 43.5245 15.5369 43.7488 15.0988C43.973 14.6548 44.1796 14.2345 44.3684 13.8379C44.5572 13.4412 44.7166 13.089 44.8464 12.7812C44.9762 12.4733 45.0411 12.2513 45.0411 12.1152C45.0411 12.0204 45.0028 11.9731 44.9261 11.9731C44.7018 11.9731 44.4215 12.0382 44.0851 12.1684C43.7488 12.2928 43.3799 12.4674 42.9786 12.6924C42.5773 12.9114 42.1584 13.1719 41.7217 13.4738C41.2909 13.7757 40.866 14.1043 40.447 14.4595C40.0339 14.8147 39.6385 15.1906 39.2608 15.5872C38.889 15.9779 38.5645 16.3716 38.2871 16.7682C38.2576 16.7978 38.2428 16.8659 38.2428 16.9725C38.2428 17.0731 38.2251 17.1797 38.1897 17.2922C38.1602 17.4046 38.0983 17.5053 38.0038 17.5941C37.9094 17.6829 37.753 17.7273 37.5347 17.7273C37.3813 17.7273 37.2603 17.7095 37.1718 17.674C37.0891 17.6385 37.0242 17.5911 36.977 17.5319C36.9357 17.4668 36.9091 17.3928 36.8973 17.3099C36.8855 17.2211 36.8796 17.1234 36.8796 17.0169C36.8796 16.9103 36.9091 16.7534 36.9682 16.5462C37.0272 16.3391 37.1039 16.0993 37.1983 15.827C37.2927 15.5547 37.399 15.2616 37.517 14.9479L37.8711 14.0066C37.995 13.6928 38.1101 13.3879 38.2163 13.092C38.3284 12.796 38.4228 12.5296 38.4995 12.2928L34.5085 14.6469C34.4493 14.7211 34.3604 14.8007 34.2418 14.8857C34.1178 14.9686 33.9585 15.0663 33.7638 15.1787C33.569 15.2912 33.3359 15.4274 33.0644 15.5872C32.8992 15.6879 32.675 15.8329 32.3917 16.0223C32.1143 16.2059 31.8016 16.4101 31.4534 16.635C31.1111 16.8541 30.7452 17.082 30.3558 17.3188C29.9663 17.5497 29.5768 17.7598 29.1873 17.9493C28.7978 18.1446 28.4201 18.3015 28.0542 18.4199C27.6884 18.5442 27.3579 18.6064 27.0628 18.6064C26.8799 18.6064 26.7117 18.5798 26.5583 18.5265C26.4107 18.4732 26.2839 18.3844 26.1776 18.2601C26.0714 18.1417 25.9888 17.9848 25.9298 17.7894C25.8708 17.6 25.8413 17.3662 25.8413 17.0879C25.8413 16.715 25.9032 16.2947 26.0271 15.827C26.1511 15.3534 26.3075 14.8679 26.4963 14.3707C26.691 13.8675 26.9064 13.3643 27.1425 12.8611C27.3785 12.352 27.6116 11.8754 27.8418 11.4314C28.0719 10.9874 28.2844 10.5878 28.4791 10.2326C28.6739 9.87741 28.8244 9.59917 28.9306 9.39789C28.5529 9.39198 28.1575 9.37718 27.7444 9.3535C27.3313 9.3239 26.9389 9.28246 26.5671 9.22918C26.2012 9.1759 25.8737 9.11078 25.5846 9.03382C25.3013 8.95686 25.0947 8.8651 24.9649 8.75854C24.4102 9.43342 23.7876 10.129 23.0972 10.8453C22.4126 11.5557 21.6779 12.2484 20.893 12.9232C20.114 13.5922 19.2938 14.2286 18.4322 14.8324C17.5706 15.4303 16.6883 15.9543 15.7854 16.4042C14.8884 16.8482 13.9767 17.2034 13.0502 17.4698C12.1296 17.7302 11.2178 17.8605 10.3149 17.8605C9.96676 17.8605 9.63333 17.8486 9.31466 17.825C8.99599 17.8013 8.68913 17.7598 8.39406 17.7006C8.099 17.6414 7.81573 17.5586 7.54427 17.452C7.27281 17.3454 7.01021 17.2093 6.75645 17.0435C6.65613 16.9784 6.55286 16.9103 6.44663 16.8393C6.34041 16.7682 6.24599 16.6972 6.16337 16.6262C6.07485 16.5551 6.00403 16.487 5.95092 16.4219C5.89191 16.3509 5.85945 16.2858 5.85355 16.2266H6.03944C6.04534 16.2266 6.11616 16.2503 6.25189 16.2976C6.38172 16.345 6.55581 16.4042 6.77415 16.4752C6.9925 16.5462 7.24331 16.6262 7.52657 16.715C7.80983 16.7978 8.10785 16.8748 8.42062 16.9458C8.73929 17.0169 9.06091 17.0761 9.38548 17.1234C9.71595 17.1708 10.0317 17.1945 10.3326 17.1945C11.088 17.1945 11.8227 17.0613 12.5368 16.7949C13.2567 16.5285 13.959 16.1674 14.6435 15.7115C15.334 15.2498 16.0097 14.714 16.6706 14.1043C17.3375 13.4886 17.9955 12.8374 18.6446 12.1507C19.2938 11.464 19.9341 10.7595 20.5655 10.0373C21.2028 9.3091 21.8372 8.60166 22.4687 7.91494C23.1001 7.22823 23.7315 6.57999 24.363 5.97024C24.9944 5.35456 25.6288 4.8188 26.2662 4.36297C26.9094 3.90121 27.5585 3.53713 28.2136 3.27073C28.8686 3.00434 29.5325 2.87114 30.2053 2.87114C30.6833 2.87114 31.0787 2.93626 31.3914 3.0665C31.7042 3.19081 31.9491 3.35953 32.1261 3.57265C32.3091 3.78577 32.436 4.03441 32.5068 4.31857C32.5835 4.59681 32.6219 4.88984 32.6219 5.19768C32.6219 5.53512 32.5894 5.88144 32.5245 6.23664C32.4596 6.59183 32.3858 6.92927 32.3032 7.24895C32.2206 7.56863 32.1409 7.85871 32.0642 8.11918C31.9875 8.37374 31.9373 8.57206 31.9137 8.71414L31.9048 8.78518C32.9199 8.60758 33.808 8.37078 34.5693 8.07478C35.3364 7.77287 35.9767 7.43543 36.4902 7.06247C37.0036 6.68951 37.3872 6.29288 37.6409 5.87256C37.9006 5.44632 38.0304 5.02008 38.0304 4.59385C38.0304 4.10249 37.8563 3.62593 37.5081 3.16418C37.16 2.6965 36.6318 2.28506 35.9236 1.92986C35.2214 1.56875 34.3362 1.28163 33.268 1.06851C32.2058 0.84947 30.9577 0.739951 29.5237 0.739951C28.904 0.739951 28.2047 0.77547 27.4258 0.84651C26.6527 0.911629 25.8236 1.00043 24.9384 1.11291C24.0591 1.22539 23.1355 1.35267 22.1677 1.49475C21.2058 1.63682 20.2232 1.78482 19.22 1.93874C18.2168 2.08674 17.2077 2.23178 16.1926 2.37386C15.1776 2.51594 14.1773 2.64322 13.1918 2.7557C12.2122 2.86818 11.2591 2.95994 10.3326 3.03098C9.40613 3.0961 8.52979 3.12866 7.70361 3.12866C7.04266 3.12866 6.43483 3.09906 5.88011 3.03986C5.31948 2.97474 4.82672 2.87114 4.40183 2.72906C4.33692 2.7113 4.21594 2.64914 4.0389 2.54258C3.86186 2.4301 3.65827 2.29394 3.42812 2.1341C3.19797 1.97426 2.95896 1.80258 2.71111 1.61906C2.46325 1.43555 2.23605 1.26091 2.02951 1.09515C1.82296 0.929389 1.65182 0.78435 1.51609 0.660031C1.38036 0.529792 1.3125 0.443952 1.3125 0.402513C1.3125 0.384753 1.32725 0.375873 1.35676 0.375873C1.39807 0.375873 1.46888 0.396593 1.56921 0.438033C1.66363 0.473552 1.79936 0.535712 1.9764 0.624511C2.86749 1.08035 3.90907 1.40299 5.10114 1.59243C6.2873 1.77594 7.64755 1.8677 9.18188 1.8677C9.99626 1.8677 10.9169 1.82626 11.9437 1.74338C12.9705 1.6605 14.0711 1.55987 15.2455 1.44147C16.4198 1.31715 17.6562 1.18395 18.9544 1.04187C20.2527 0.89979 21.5805 0.76955 22.9378 0.651151C24.301 0.526832 25.679 0.423233 27.0717 0.340353C28.4703 0.257474 29.8571 0.216034 31.2321 0.216034C32.6248 0.216034 33.8228 0.331473 34.826 0.562352C35.8292 0.79323 36.6554 1.10403 37.3045 1.49475C37.9537 1.87954 38.4317 2.32354 38.7385 2.82674C39.0454 3.32401 39.1989 3.84201 39.1989 4.38073C39.1989 4.77736 39.1192 5.174 38.9599 5.57064C38.8064 5.96728 38.5763 6.34911 38.2694 6.71615C37.9684 7.07727 37.5966 7.42063 37.154 7.74623C36.7115 8.07182 36.2039 8.35894 35.6315 8.60758C35.065 8.8503 34.4365 9.05158 33.746 9.21142C33.0615 9.37126 32.3209 9.4719 31.5242 9.51333C31.4711 9.62581 31.3649 9.80933 31.2055 10.0639C31.0521 10.3184 30.8662 10.6204 30.6479 10.9696C30.4295 11.313 30.1876 11.6889 29.922 12.0974C29.6623 12.5 29.3997 12.9114 29.1342 13.3317C28.8686 13.752 28.6119 14.1664 28.3641 14.5749C28.1162 14.9834 27.8949 15.3593 27.7002 15.7027C27.5113 16.046 27.3579 16.345 27.2399 16.5995C27.1277 16.8482 27.0717 17.0287 27.0717 17.1412C27.0717 17.3366 27.113 17.4786 27.1956 17.5674C27.2782 17.6503 27.3962 17.6918 27.5497 17.6918C27.7385 17.6918 27.9775 17.6326 28.2667 17.5142C28.5559 17.3958 28.8775 17.2389 29.2316 17.0435C29.5856 16.8422 29.9663 16.6173 30.3735 16.3687C30.7806 16.1141 31.1996 15.8536 31.6304 15.5872C32.0612 15.3149 32.495 15.0485 32.9317 14.788C33.3684 14.5275 33.7962 14.2907 34.2152 14.0776ZM29.2935 8.75854C29.4647 8.39742 29.6535 8.01558 29.86 7.61303C30.0725 7.20455 30.2702 6.80199 30.4531 6.40535C30.6361 6.0028 30.7895 5.618 30.9134 5.25096C31.0374 4.878 31.0993 4.54945 31.0993 4.26529C31.0993 3.99889 31.0492 3.80945 30.9488 3.69697C30.8485 3.58449 30.7128 3.52825 30.5416 3.52825C30.3292 3.52825 30.0725 3.60225 29.7715 3.75025C29.4765 3.89825 29.1607 4.09657 28.8244 4.34521C28.4939 4.59385 28.1575 4.878 27.8152 5.19768C27.473 5.51736 27.1484 5.84888 26.8415 6.19224C26.5406 6.53559 26.2691 6.87895 26.0271 7.22231C25.7852 7.55975 25.6023 7.87351 25.4783 8.16358C25.5491 8.2583 25.7114 8.34414 25.9652 8.4211C26.2189 8.49214 26.5258 8.5543 26.8858 8.60758C27.2458 8.65494 27.6353 8.69342 28.0542 8.72302C28.4791 8.7467 28.8922 8.75854 29.2935 8.75854ZM58.3987 5.55288C58.6997 5.4108 59.0184 5.33976 59.3547 5.33976C59.579 5.33976 59.7265 5.37528 59.7973 5.44632C59.8741 5.51736 59.9124 5.61208 59.9124 5.73048C59.9124 5.93768 59.8091 6.20704 59.6026 6.53855C59.402 6.86415 59.098 7.24007 58.6908 7.66631C58.2837 8.09254 57.7791 8.56318 57.1772 9.07822C56.5752 9.59325 55.8759 10.1379 55.0793 10.7121C55.2209 10.2681 55.3773 9.82709 55.5484 9.38902C55.7254 8.95094 55.9172 8.53358 56.1238 8.13694C56.3303 7.74031 56.5516 7.37031 56.7877 7.02695C57.0237 6.68359 57.2745 6.38759 57.5401 6.13896C57.8116 5.89032 58.0978 5.69496 58.3987 5.55288ZM67.5871 11.5468C67.115 11.5468 66.6635 11.6268 66.2327 11.7866C65.8019 11.9464 65.4006 12.1566 65.0288 12.4171C64.663 12.6776 64.3295 12.9765 64.0286 13.314C63.7335 13.6455 63.4798 13.9888 63.2673 14.344C63.0608 14.6933 62.8985 15.0396 62.7804 15.383C62.6683 15.7263 62.6123 16.0342 62.6123 16.3065C62.6123 16.6084 62.6772 16.8541 62.807 17.0435C62.9427 17.227 63.1611 17.3188 63.4621 17.3188C63.6391 17.3188 63.8309 17.2655 64.0374 17.159C64.2499 17.0465 64.4623 16.9014 64.6748 16.7238C64.8931 16.5403 65.1056 16.3361 65.3121 16.1111C65.5246 15.8803 65.7193 15.6494 65.8963 15.4185C66.0734 15.1817 66.2268 14.9538 66.3566 14.7347C66.4924 14.5098 66.5897 14.3144 66.6488 14.1487L67.5871 11.5468ZM78.6786 10.1527C78.1946 10.4605 77.7757 10.7092 77.4216 10.8986C77.6694 9.75605 77.9468 8.75558 78.2537 7.89718C78.5664 7.03287 78.9382 6.31359 79.369 5.73936C79.8057 5.16512 80.3191 4.73296 80.9092 4.44289C81.4994 4.15281 82.1987 4.00777 83.0072 4.00777C83.5206 4.00777 83.8894 4.07585 84.1137 4.21201C84.3438 4.34225 84.4589 4.51689 84.4589 4.73593C84.4589 4.9964 84.335 5.30424 84.0871 5.65944C83.8392 6.00872 83.5117 6.37871 83.1045 6.76943C82.7032 7.16015 82.2488 7.55975 81.7413 7.96822C81.2338 8.3767 80.7175 8.76742 80.1922 9.14038C79.6729 9.50741 79.1684 9.84485 78.6786 10.1527ZM89.4602 21.2349C89.2596 21.448 89.0501 21.7203 88.8317 22.0518C88.6134 22.3833 88.398 22.7385 88.1855 23.1174C87.9731 23.5022 87.7695 23.8929 87.5748 24.2896C87.38 24.6921 87.2089 25.068 87.0613 25.4173C86.9197 25.7666 86.8046 26.0744 86.7161 26.3408C86.6335 26.6131 86.5922 26.8085 86.5922 26.9269C86.5922 27.0631 86.6571 27.1311 86.7869 27.1311C86.9404 27.1311 87.1027 27.0571 87.2738 26.9091C87.4508 26.7671 87.6308 26.5717 87.8138 26.3231C88.0026 26.0803 88.1944 25.7962 88.3891 25.4706C88.5839 25.1509 88.7786 24.8105 88.9734 24.4494C89.1681 24.0883 89.3599 23.7183 89.5488 23.3394C89.7435 22.9664 89.9294 22.6083 90.1064 22.2649C90.3307 21.7262 90.5372 21.223 90.7261 20.7553C90.9208 20.2877 91.1067 19.8466 91.2837 19.4322C90.729 19.9532 90.1212 20.5541 89.4602 21.2349ZM104.101 11.7866C104.532 11.6268 104.984 11.5468 105.456 11.5468L104.517 14.1487C104.458 14.3144 104.361 14.5098 104.225 14.7347C104.095 14.9538 103.942 15.1817 103.765 15.4185C103.588 15.6494 103.393 15.8803 103.181 16.1111C102.974 16.3361 102.762 16.5403 102.543 16.7238C102.331 16.9014 102.119 17.0465 101.906 17.159C101.7 17.2655 101.508 17.3188 101.331 17.3188C101.03 17.3188 100.811 17.227 100.676 17.0435C100.546 16.8541 100.481 16.6084 100.481 16.3065C100.481 16.0342 100.537 15.7263 100.649 15.383C100.767 15.0396 100.929 14.6933 101.136 14.344C101.348 13.9888 101.602 13.6455 101.897 13.314C102.198 12.9765 102.532 12.6776 102.897 12.4171C103.269 12.1566 103.671 11.9464 104.101 11.7866ZM90.3572 35.5641C90.3395 35.8009 90.3306 36.02 90.3306 36.2212C90.3306 36.3633 90.366 36.4787 90.4368 36.5675C90.5136 36.6504 90.605 36.7155 90.7113 36.7629C90.8234 36.8043 90.9444 36.831 91.0742 36.8428C91.204 36.8547 91.325 36.8606 91.4371 36.8606C91.4902 36.8606 91.5935 36.8191 91.7469 36.7363C91.9004 36.6475 92.0804 36.5291 92.2869 36.3811C92.4994 36.2331 92.7325 36.0644 92.9862 35.8749C93.24 35.6855 93.4967 35.4872 93.7563 35.28C94.494 34.7945 95.3084 34.238 96.1995 33.6105L95.9516 35.5552C95.928 35.7388 95.8896 35.9075 95.8365 36.0614C95.7893 36.2094 95.7657 36.3515 95.7657 36.4876C95.7657 36.6297 95.7775 36.7629 95.8011 36.8872C95.8306 37.0115 95.8808 37.124 95.9516 37.2247C96.0283 37.3194 96.1316 37.3934 96.2614 37.4467C96.3972 37.5059 96.5713 37.5355 96.7837 37.5355C96.8545 37.5355 96.9253 37.5325 96.9961 37.5266C97.067 37.5207 97.1348 37.5118 97.1997 37.4999C97.3355 37.4763 97.5715 37.3815 97.9079 37.2158C98.2443 37.0441 98.6515 36.8221 99.1295 36.5498C99.6134 36.2775 100.15 35.9667 100.741 35.6174C101.337 35.2681 101.959 34.9011 102.608 34.5163L102.617 34.5111L104.033 33.6638L105.423 32.7847C105.341 33.1932 105.273 33.6194 105.22 34.0634C105.172 34.5074 105.149 34.9544 105.149 35.4043C105.149 35.6352 105.158 35.8986 105.175 36.1946C105.193 36.4906 105.243 36.7688 105.326 37.0293C105.414 37.2839 105.547 37.4999 105.724 37.6775C105.907 37.8551 106.164 37.9439 106.494 37.9439C106.878 37.9439 107.259 37.8492 107.636 37.6598C108.008 37.4703 108.418 37.2158 108.867 36.8961L110.38 35.795C110.804 35.4924 111.455 35.0755 112.335 34.5442C112.35 34.5363 112.366 34.527 112.381 34.5163C112.442 34.4795 112.498 34.4423 112.547 34.4048L117.807 30.8844C117.648 31.0087 117.509 31.1922 117.391 31.4349C117.279 31.6777 117.187 31.9263 117.117 32.1809C117.046 32.4354 116.993 32.6722 116.957 32.8913C116.928 33.1103 116.913 33.2583 116.913 33.3352C116.913 33.8444 116.848 34.3268 116.718 34.7827C116.594 35.2385 116.426 35.6381 116.214 35.9815C116.007 36.3189 115.768 36.5883 115.497 36.7895C115.225 36.9849 114.945 37.0826 114.656 37.0826C114.491 37.0826 114.364 37.1181 114.275 37.1891C114.187 37.2543 114.139 37.3283 114.134 37.4111C114.134 37.4881 114.175 37.5591 114.257 37.6243C114.346 37.6894 114.485 37.7219 114.673 37.7219C114.921 37.7219 115.172 37.6923 115.426 37.6331C115.68 37.5739 115.948 37.4585 116.231 37.2868C116.391 37.1921 116.588 37.0737 116.825 36.9316C117.061 36.7836 117.362 36.6001 117.727 36.3811C118.099 36.162 118.545 35.9016 119.064 35.5996C119.589 35.2918 120.215 34.9307 120.941 34.5163C121.076 34.4393 121.171 34.3535 121.224 34.2588C121.283 34.164 121.312 34.0841 121.312 34.019C121.312 33.9361 121.286 33.871 121.233 33.8236C121.186 33.7704 121.13 33.7437 121.065 33.7437C121.023 33.7437 120.982 33.7556 120.941 33.7792L117.471 35.7684C117.719 35.6085 117.922 35.428 118.081 35.2267C118.241 35.0195 118.365 34.8123 118.453 34.6051C118.542 34.392 118.601 34.1877 118.63 33.9924C118.666 33.7911 118.683 33.6105 118.683 33.4507C118.683 33.2198 118.663 33.0511 118.621 32.9445C118.586 32.8321 118.545 32.7314 118.498 32.6426C118.456 32.5479 118.418 32.4413 118.382 32.3229C118.347 32.2045 118.329 32.021 118.329 31.7724C118.329 31.6717 118.382 31.5533 118.489 31.4172C118.601 31.281 118.722 31.1478 118.852 31.0176C118.981 30.8814 119.099 30.7601 119.206 30.6535C119.318 30.5469 119.374 30.47 119.374 30.4226C119.374 30.2865 119.312 30.1888 119.188 30.1296C119.07 30.0645 118.917 30.0319 118.728 30.0319C118.557 30.0319 118.371 30.0556 118.17 30.1029C117.969 30.1444 117.778 30.2036 117.595 30.2805L116.355 31.1241C115.948 31.3905 115.42 31.7398 114.771 32.172C114.128 32.5982 113.331 33.134 112.381 33.7792C111.98 33.9391 111.378 34.2943 110.575 34.8448L109.106 35.8483C108.669 36.1502 108.274 36.3988 107.919 36.5942C107.571 36.7895 107.253 36.8872 106.963 36.8872C106.881 36.8872 106.822 36.8487 106.786 36.7718C106.751 36.6948 106.733 36.5912 106.733 36.461C106.733 36.2242 106.739 35.9785 106.751 35.724C106.763 35.4694 106.792 35.1704 106.84 34.8271C106.893 34.4778 106.969 34.0693 107.07 33.6016C107.17 33.1281 107.309 32.5597 107.486 31.8967L108.787 31.9145C109.235 31.9204 109.69 31.9293 110.15 31.9411C110.268 31.947 110.445 31.9352 110.681 31.9056C110.894 31.876 111.115 31.8345 111.345 31.7813C111.581 31.728 111.814 31.6629 112.044 31.5859C112.281 31.5089 112.49 31.4201 112.673 31.3195C112.862 31.2129 113.012 31.0945 113.124 30.9643C113.242 30.8341 113.301 30.692 113.301 30.5381C113.301 30.4374 113.231 30.3516 113.089 30.2805C113.054 30.2687 113.024 30.2628 113 30.2628C112.93 30.2628 112.879 30.2805 112.85 30.3161C112.82 30.3457 112.773 30.3693 112.708 30.3871C112.378 30.4285 112.03 30.467 111.664 30.5025C111.304 30.5381 110.935 30.5706 110.557 30.6002L109.407 30.6979C109.017 30.7275 108.634 30.7601 108.256 30.7956C109.017 30.2213 109.71 29.6619 110.336 29.1173C110.967 28.5667 111.507 28.0487 111.956 27.5633C112.41 27.0719 112.761 26.625 113.009 26.2224C113.263 25.8199 113.39 25.4765 113.39 25.1923C113.39 24.9851 113.304 24.8253 113.133 24.7128C112.968 24.5944 112.7 24.5352 112.328 24.5352C111.525 24.5352 110.805 24.6655 110.168 24.9259C109.531 25.1864 108.952 25.5831 108.433 26.1159C107.919 26.6487 107.456 27.3235 107.043 28.1405C106.63 28.9574 106.246 29.9224 105.892 31.0353C105.585 31.0709 105.305 31.1123 105.051 31.1597C104.798 31.2011 104.579 31.2485 104.396 31.3017C104.213 31.3491 104.072 31.4024 103.971 31.4616C103.871 31.5208 103.821 31.5829 103.821 31.6481C103.833 31.725 103.868 31.7961 103.927 31.8612C103.992 31.9204 104.075 31.95 104.175 31.95C104.222 31.95 104.272 31.947 104.326 31.9411C104.379 31.9352 104.435 31.9322 104.494 31.9322L105.627 31.9056L105.609 31.9855C105.149 32.2874 104.671 32.5864 104.175 32.8824L102.61 33.7784L102.608 33.7792L102.591 33.7895L100.466 35.0491L99.634 35.5286C99.3626 35.6884 99.1118 35.8364 98.8816 35.9726C98.6515 36.1087 98.4538 36.2271 98.2885 36.3278C98.1292 36.4225 98.02 36.4876 97.961 36.5231V34.2321C97.961 33.9302 97.9286 33.6904 97.8636 33.5128C97.8046 33.3352 97.725 33.1991 97.6246 33.1044C97.5302 33.0097 97.421 32.9505 97.2971 32.9268C97.1732 32.8972 97.0493 32.8824 96.9253 32.8824C96.7542 32.8824 96.589 32.9061 96.4296 32.9534C96.2703 33.0008 96.1198 33.057 95.9782 33.1221C95.8424 33.1872 95.7185 33.2583 95.6064 33.3352C95.5002 33.4122 95.4146 33.4803 95.3497 33.5395C95.214 33.6401 95.034 33.7644 94.8097 33.9124C94.5914 34.0545 94.3465 34.2114 94.075 34.3831C93.8094 34.5548 93.5262 34.7353 93.2252 34.9248L92.3223 35.4753L92.8534 32.0565L102.927 25.8317C103.623 25.4055 104.146 24.9703 104.494 24.5263C104.848 24.0764 105.025 23.6472 105.025 23.2388C105.025 22.9783 104.945 22.7385 104.786 22.5195C104.632 22.2945 104.396 22.0992 104.078 21.9334C103.759 21.7676 103.355 21.6404 102.865 21.5516C102.375 21.4568 101.8 21.4095 101.139 21.4095C100.36 21.4095 99.6252 21.5368 98.9347 21.7913C98.2502 22.04 97.6069 22.3774 97.005 22.8036C96.409 23.2299 95.8542 23.7242 95.3408 24.2866C94.8274 24.8431 94.3553 25.4291 93.9245 26.0448C93.4937 26.6605 93.1072 27.2821 92.7649 27.9096C92.4226 28.5371 92.1217 29.1321 91.862 29.6945C91.6024 30.2569 91.384 30.7689 91.207 31.2307C91.0299 31.6925 90.8942 32.0595 90.7998 32.3318L88.5249 33.7625C88.5134 33.7676 88.5016 33.7731 88.4894 33.7792C87.7695 34.0812 87.0967 34.4156 86.4712 34.7827C85.8515 35.1438 85.2673 35.4812 84.7185 35.795C84.1697 36.1087 83.6562 36.3722 83.1782 36.5853C82.7002 36.7984 82.2488 36.905 81.8239 36.905C81.4521 36.905 81.1482 36.7836 80.9121 36.5409C80.6761 36.2982 80.5581 35.9104 80.5581 35.3776C80.5581 35.0935 80.5964 34.7945 80.6731 34.4808C80.7558 34.167 80.859 33.8562 80.983 33.5484C81.1128 33.2405 81.2603 32.9475 81.4256 32.6693C81.5908 32.391 81.759 32.1453 81.9301 31.9322C82.1013 31.7191 82.2665 31.5504 82.4258 31.4261C82.5911 31.3017 82.7386 31.2396 82.8684 31.2396C83.0042 31.2396 83.1104 31.3136 83.1871 31.4616C83.2697 31.6096 83.311 31.8612 83.311 32.2164C83.311 32.4117 83.3671 32.5568 83.4792 32.6515C83.5972 32.7403 83.7094 32.7847 83.8156 32.7847C83.9513 32.7847 84.0841 32.761 84.2139 32.7137C84.3497 32.6604 84.4677 32.5864 84.568 32.4917C84.6742 32.391 84.7568 32.2697 84.8159 32.1276C84.8808 31.9855 84.9132 31.8227 84.9132 31.6392C84.9132 31.355 84.7657 31.133 84.4706 30.9732C84.1815 30.8074 83.7418 30.7245 83.1517 30.7245C82.7386 30.7245 82.3403 30.7926 81.9567 30.9288C81.579 31.059 81.16 31.2544 80.6997 31.5149C80.2394 31.7694 79.7112 32.0861 79.1152 32.465C78.5251 32.8439 77.811 33.282 76.973 33.7792L76.9609 33.7864L74.8574 35.0313C74.58 35.1852 74.3115 35.3362 74.0519 35.4842C73.7922 35.6322 73.5591 35.7624 73.3526 35.8749C73.1519 35.9874 72.9867 36.0792 72.8569 36.1502C72.7329 36.2153 72.668 36.2479 72.6621 36.2479C72.8215 35.6085 72.966 35.0994 73.0959 34.7205C73.2316 34.3357 73.3378 34.019 73.4145 33.7704C73.4204 33.7408 73.4529 33.6312 73.5119 33.4418C73.5768 33.2464 73.6476 33.0274 73.7244 32.7847C73.8011 32.5361 73.8778 32.2963 73.9545 32.0654C74.0312 31.8286 74.0873 31.654 74.1227 31.5415C74.1699 31.5178 74.2348 31.503 74.3174 31.4971C74.406 31.4912 74.4886 31.4823 74.5653 31.4705C74.6479 31.4527 74.7187 31.4261 74.7777 31.3905C74.8368 31.355 74.8663 31.2958 74.8663 31.2129C74.8663 31.1005 74.822 30.9998 74.7335 30.911C74.6509 30.8222 74.5328 30.7482 74.3794 30.689C74.2319 30.6239 74.0548 30.5765 73.8483 30.5469C73.6417 30.5114 73.4204 30.4937 73.1844 30.4937C72.7713 30.4937 72.3317 30.5203 71.8654 30.5736C71.3992 30.6209 70.9271 30.7009 70.4491 30.8133C69.977 30.9199 69.5108 31.059 69.0505 31.2307C68.5902 31.4024 68.1565 31.6066 67.7493 31.8434L64.4741 33.7792L63.403 34.3742L62.2257 35.0313L60.774 35.8216C61.3582 34.685 61.8834 33.5957 62.3496 32.5538C62.8158 31.5119 63.2141 30.5677 63.5446 29.7211C63.8751 28.8686 64.1288 28.1375 64.3059 27.5278C64.4829 26.918 64.5714 26.4799 64.5714 26.2135C64.5714 26.1011 64.5685 26.0241 64.5626 25.9827C64.5567 25.9412 64.539 25.9205 64.5095 25.9205C64.4741 25.9205 64.3944 25.9501 64.2705 26.0093C64.1465 26.0626 63.9548 26.0892 63.6951 26.0892C63.6361 26.0892 63.5033 26.2254 63.2968 26.4977L62.5001 27.5722L61.3582 29.0906C60.9274 29.659 60.4523 30.2391 59.933 30.8311C59.4196 31.4231 58.8708 32.0033 58.2866 32.5716C57.7023 33.1399 57.0945 33.646 56.4631 34.09C55.8375 34.534 55.1972 34.8922 54.5422 35.1645C53.8812 35.4368 53.2173 35.573 52.5505 35.573C52.2554 35.573 52.0046 35.5493 51.7981 35.502C51.5974 35.4487 51.4351 35.3776 51.3112 35.2888C51.1873 35.1941 51.0958 35.0816 51.0368 34.9514C50.9837 34.8212 50.9571 34.6761 50.9571 34.5163C50.9571 34.244 51.0398 33.9361 51.205 33.5928C51.3702 33.2435 51.5797 32.8735 51.8335 32.4828L52.639 31.2662C52.9282 30.84 53.1967 30.4167 53.4445 29.9964C53.6983 29.5702 53.9078 29.1558 54.073 28.7532C54.2383 28.3447 54.3209 27.957 54.3209 27.5899C54.3209 27.0571 54.1409 26.5747 53.7809 26.1425C53.4268 25.7044 52.9488 25.3344 52.3469 25.0325C51.7509 24.7247 51.0634 24.4879 50.2844 24.3221C49.5054 24.1563 48.691 24.0735 47.8413 24.0735C47.0446 24.0735 46.242 24.1415 45.4335 24.2777C44.6309 24.4079 43.8608 24.6151 43.1232 24.8993C42.3796 25.1775 41.6862 25.5357 41.043 25.9738C40.3997 26.4059 39.842 26.9269 39.3699 27.5366C38.8919 28.1405 38.5172 28.8361 38.2457 29.6234C37.9684 30.4049 37.8297 31.284 37.8297 32.2608C37.8297 32.616 37.8503 32.983 37.8917 33.3619C37.933 33.7408 38.0008 34.1374 38.0953 34.5518L38.4759 34.6317C38.411 34.3298 38.3667 34.0397 38.3431 33.7615C38.3136 33.4832 38.2989 33.2109 38.2989 32.9445C38.2989 31.9973 38.4523 31.1389 38.7592 30.3693C39.0601 29.5998 39.4732 28.913 39.9984 28.3092C40.5177 27.7054 41.1256 27.1844 41.8219 26.7463C42.5124 26.3023 43.2441 25.9383 44.0172 25.6541C44.7962 25.364 45.5958 25.1509 46.4161 25.0147C47.2305 24.8727 48.0212 24.8016 48.7884 24.8016C49.4671 24.8016 50.1103 24.8608 50.7181 24.9792C51.326 25.0976 51.8571 25.2723 52.3115 25.5031C52.7718 25.734 53.1347 26.0182 53.4003 26.3556C53.6658 26.6931 53.7986 27.0808 53.7986 27.5189C53.7986 27.8504 53.6983 28.2234 53.4977 28.6378C53.3029 29.0462 53.058 29.4784 52.7629 29.9342C52.4679 30.3901 52.1463 30.8577 51.7981 31.3373C51.4558 31.8109 51.1371 32.2785 50.8421 32.7403C50.547 33.202 50.2991 33.649 50.0985 34.0812C49.9038 34.5074 49.8064 34.9011 49.8064 35.2622C49.8064 35.4694 49.8418 35.6618 49.9126 35.8394C49.9893 36.0111 50.1103 36.162 50.2755 36.2923C50.4467 36.4225 50.668 36.5231 50.9394 36.5942C51.2109 36.6652 51.5473 36.7007 51.9486 36.7007C52.5564 36.7007 53.1613 36.5971 53.7632 36.3899C54.3651 36.1828 54.9641 35.8956 55.5602 35.5286C56.1562 35.1616 56.7493 34.7235 57.3394 34.2144C57.9354 33.7052 58.5256 33.1488 59.1098 32.5449C59.6999 31.9352 60.2871 31.2899 60.8713 30.6091L61.5618 29.7833C61.4024 29.9964 61.2461 30.2184 61.0926 30.4493C60.5851 31.2129 60.1366 31.9529 59.7471 32.6693C59.3281 33.4448 58.9268 34.2528 58.5433 35.0935L57.4279 37.642L56.1532 38.3347L54.9582 38.9651C54.2206 39.3559 53.5272 39.791 52.878 40.2705C52.2289 40.7559 51.6328 41.2621 51.0899 41.789C50.547 42.3218 50.0601 42.8664 49.6293 43.4229C49.2045 43.9853 48.8445 44.5358 48.5494 45.0745C48.2543 45.6192 48.0271 46.1431 47.8678 46.6463C47.7144 47.1495 47.6377 47.6142 47.6377 48.0404C47.6377 48.366 47.6849 48.662 47.7793 48.9284C47.8737 49.1948 48.0212 49.4227 48.2219 49.6122C48.4343 49.8135 48.6822 49.9615 48.9655 50.0562C49.2664 50.1627 49.6264 50.216 50.0454 50.216C50.7063 50.216 51.3614 50.0325 52.0105 49.6655C52.6656 49.3043 53.3029 48.8071 53.9225 48.1736C54.5481 47.5461 55.1559 46.8032 55.746 45.9448C56.3362 45.0923 56.8998 44.1747 57.4368 43.192C57.9797 42.2093 58.4931 41.1851 58.977 40.1195C59.4668 39.0599 59.9212 38.0031 60.3402 36.9494L64.4741 34.5163L67.0323 33.0067C66.9438 33.1961 66.8582 33.4063 66.7756 33.6372C66.693 33.8621 66.6192 34.093 66.5543 34.3298C66.4894 34.5666 66.4363 34.8004 66.3949 35.0313C66.3595 35.2622 66.3418 35.4724 66.3418 35.6618C66.3418 35.9815 66.392 36.2627 66.4923 36.5054C66.5926 36.7481 66.7284 36.9523 66.8995 37.1181C67.0765 37.2779 67.2801 37.3993 67.5103 37.4822C67.7404 37.5651 67.9853 37.6065 68.245 37.6065C68.5047 37.6065 68.7702 37.5651 69.0417 37.4822C69.3131 37.3993 69.5757 37.275 69.8295 37.1092C70.0892 36.9375 70.3311 36.7274 70.5554 36.4787C70.7855 36.2301 70.9862 35.9371 71.1573 35.5996C71.1101 35.7358 71.0717 35.8779 71.0422 36.0259C71.0127 36.1739 70.998 36.3219 70.998 36.4699C70.998 36.606 71.0098 36.7363 71.0334 36.8606C71.0629 36.979 71.1042 37.0855 71.1573 37.1803C71.2104 37.275 71.2783 37.349 71.3609 37.4023C71.4435 37.4555 71.5438 37.4822 71.6619 37.4822C71.7445 37.4822 71.8359 37.4674 71.9363 37.4378C72.0366 37.4082 72.1458 37.3579 72.2638 37.2868L76.973 34.5163C76.9899 34.5068 77.0062 34.4972 77.0219 34.4874L80.3456 32.5272C80.1391 32.687 79.9443 32.8794 79.7614 33.1044C79.5844 33.3293 79.4309 33.575 79.3011 33.8414C79.1713 34.1019 79.068 34.3772 78.9913 34.6672C78.9205 34.9514 78.885 35.2296 78.885 35.502C78.885 35.8157 78.9293 36.1117 79.0178 36.3899C79.1063 36.6682 79.248 36.9139 79.4427 37.127C79.6375 37.3342 79.8912 37.4999 80.204 37.6243C80.5168 37.7486 80.8974 37.8107 81.3459 37.8107C81.7885 37.8107 82.2252 37.7486 82.656 37.6243C83.0868 37.5059 83.5087 37.3519 83.9218 37.1625C84.3408 36.9671 84.7509 36.7511 85.1522 36.5143C85.5535 36.2715 85.943 36.0288 86.3207 35.7861C86.7043 35.5375 87.0761 35.3036 87.436 35.0846C87.7533 34.8863 88.0637 34.7156 88.3672 34.5726C88.4137 34.5637 88.4574 34.545 88.4983 34.5163L90.7113 33.2109C90.6581 33.4714 90.608 33.7378 90.5608 34.0101C90.5136 34.2765 90.4723 34.5429 90.4368 34.8093C90.4073 35.0698 90.3808 35.3214 90.3572 35.5641ZM95.332 29.3659C94.5294 29.8987 93.7563 30.4167 93.0128 30.9199C93.1131 30.5647 93.2577 30.1651 93.4465 29.7211C93.6354 29.2771 93.8596 28.8154 94.1193 28.3358C94.3848 27.8563 94.6799 27.3709 95.0045 26.8795C95.329 26.3823 95.6772 25.9027 96.049 25.441C96.4208 24.9792 96.8132 24.5471 97.2263 24.1445C97.6394 23.736 98.0643 23.3808 98.501 23.0789C98.9436 22.777 99.3921 22.5402 99.8465 22.3685C100.301 22.1909 100.755 22.1021 101.21 22.1021C102.183 22.1021 102.894 22.1909 103.343 22.3685C103.791 22.5402 104.016 22.774 104.016 23.07C104.016 23.3009 103.895 23.5614 103.653 23.8515C103.411 24.1415 103.066 24.4553 102.617 24.7927C101.844 25.2367 101.047 25.7133 100.227 26.2224C99.4127 26.7256 98.5924 27.2406 97.7663 27.7675C96.946 28.2944 96.1346 28.8272 95.332 29.3659ZM51.6387 48.6354C51.1548 48.8959 50.6208 49.0261 50.0365 49.0261C49.5349 49.0261 49.1661 48.8988 48.93 48.6443C48.694 48.3897 48.576 48.0464 48.576 47.6142C48.576 47.2768 48.6468 46.8979 48.7884 46.4776C48.93 46.0572 49.1366 45.6133 49.4081 45.1456C49.6795 44.6838 50.0129 44.2073 50.4083 43.7159C50.8037 43.2305 51.2552 42.7509 51.7627 42.2774C52.2761 41.8097 52.8426 41.3598 53.4622 40.9276C54.1291 40.4658 54.793 40.0781 55.4539 39.7643C55.5543 39.717 55.7401 39.6163 56.0116 39.4624L56.9942 38.8941L56.109 41.4426C55.8139 42.2833 55.5041 43.0795 55.1795 43.8313C54.8609 44.5832 54.5245 45.2758 54.1704 45.9092C53.8104 46.5427 53.4209 47.0903 53.0019 47.552C52.583 48.0138 52.1286 48.3749 51.6387 48.6354ZM71.1661 31.4882C71.5969 31.3284 72.0484 31.2485 72.5205 31.2485L71.5822 33.8503C71.5232 34.016 71.4258 34.2114 71.2901 34.4364C71.1602 34.6554 71.0068 34.8833 70.8298 35.1201C70.6527 35.351 70.458 35.5819 70.2455 35.8128C70.039 36.0377 69.8266 36.242 69.6082 36.4255C69.3958 36.6031 69.1833 36.7481 68.9709 36.8606C68.7643 36.9671 68.5725 37.0204 68.3955 37.0204C68.0945 37.0204 67.8762 36.9287 67.7404 36.7451C67.6106 36.5557 67.5457 36.31 67.5457 36.0081C67.5457 35.7358 67.6018 35.428 67.7139 35.0846C67.8319 34.7412 67.9942 34.3949 68.2007 34.0456C68.4132 33.6904 68.6669 33.3471 68.962 33.0156C69.263 32.6781 69.5964 32.3792 69.9623 32.1187C70.3341 31.8582 70.7354 31.6481 71.1661 31.4882ZM112.195 25.0414C111.859 25.0414 111.54 25.1124 111.239 25.2545C110.938 25.3966 110.652 25.5919 110.38 25.8406C110.115 26.0892 109.864 26.3852 109.628 26.7286C109.392 27.0719 109.171 27.4419 108.964 27.8386C108.757 28.2352 108.566 28.6526 108.389 29.0906C108.217 29.5287 108.061 29.9697 107.919 30.4137C108.716 29.8395 109.415 29.2949 110.017 28.7798C110.619 28.2648 111.124 27.7942 111.531 27.3679C111.938 26.9417 112.242 26.5658 112.443 26.2402C112.649 25.9087 112.753 25.6393 112.753 25.4321C112.753 25.3137 112.714 25.219 112.638 25.1479C112.567 25.0769 112.419 25.0414 112.195 25.0414Z" fill="url(#paint0_linear_953_52)"/>
</g>
<defs>
<filter id="filter0_d_953_52" x="0.3125" y="0.216034" width="122" height="52" filterUnits="userSpaceOnUse" color-interpolation-filters="sRGB">
<feFlood flood-opacity="0" result="BackgroundImageFix"/>
<feColorMatrix in="SourceAlpha" type="matrix" values="0 0 0 0 0 0 0 0 0 0 0 0 0 0 0 0 0 0 127 0" result="hardAlpha"/>
<feOffset dy="1"/>
<feGaussianBlur stdDeviation="0.5"/>
<feComposite in2="hardAlpha" operator="out"/>
<feColorMatrix type="matrix" values="0 0 0 0 0 0 0 0 0 0.231167 0 0 0 0 0.304167 0 0 0 0.33 0"/>
<feBlend mode="normal" in2="BackgroundImageFix" result="effect1_dropShadow_953_52"/>
<feBlend mode="normal" in="SourceGraphic" in2="effect1_dropShadow_953_52" result="shape"/>
</filter>
<linearGradient id="paint0_linear_953_52" x1="2.35113" y1="-1.21659" x2="121.814" y2="49.2819" gradientUnits="userSpaceOnUse">
<stop stop-color="#00B4ED"/>
<stop offset="1" stop-color="white"/>
</linearGradient>
</defs>
</svg>
